<svg xmlns="http://www.w3.org/2000/svg" width="20.987" height="21" viewBox="0 0 20.987 21"><g transform="translate(-120.588 -163.431)"><path d="M131.778,184.431h-1.394c-.249-.031-.5-.057-.748-.094a10.026,10.026,0,0,1-5.378-2.444,10.217,10.217,0,0,1-3.341-10.524,9.944,9.944,0,0,1,4.21-6.066,10.491,10.491,0,0,1,16.284,6.806c.065.375.11.753.164,1.13v1.394c-.013.066-.03.132-.04.2-.061.424-.094.855-.184,1.273a10.351,10.351,0,0,1-3.2,5.582,10.217,10.217,0,0,1-5.243,2.582C132.532,184.333,132.155,184.377,131.778,184.431Zm-.7-1.635a8.86,8.86,0,1,0-8.855-8.874A8.862,8.862,0,0,0,131.078,182.8Z" fill="#999"/><path d="M309.049,261.66c0-.806,0-1.612,0-2.418a.819.819,0,0,1,.634-.8.8.8,0,0,1,.923.471,1.15,1.15,0,0,1,.074.417q.008,2.09,0,4.18a.348.348,0,0,0,.161.318c.915.679,1.825,1.366,2.737,2.05a.8.8,0,0,1,.334.844.778.778,0,0,1-.608.624.749.749,0,0,1-.66-.13q-1.633-1.218-3.26-2.444a.84.84,0,0,1-.336-.712C309.051,263.258,309.049,262.459,309.049,261.66Z" transform="translate(-178.786 -90.111)" fill="#999"/></g></svg>